<svg id="Capa_1" enable-background="new 0 0 512 512" height="45" viewBox="0 0 512 512" width="45" xmlns="http://www.w3.org/2000/svg" xmlns:xlink="http://www.w3.org/1999/xlink"><linearGradient id="SVGID_1_" gradientUnits="userSpaceOnUse" x1="256" x2="256" y1="436" y2="76"><stop offset="0" stop-color="#00b59c"/><stop offset="1" stop-color="#9cffac"/></linearGradient><g><g><path d="m406 226c-7.703 0-15.211.841-22.446 2.423l-12.159-32.423h34.605c24.813 0 45-20.187 45-45v-30c0-8.284-6.716-15-15-15h-98.355l-7.6-20.267c-2.195-5.854-7.793-9.733-14.045-9.733h-60c-8.284 0-15 6.716-15 15s6.716 15 15 15h49.605l26.116 69.643-74.525 124.208-51.925-103.851h20.729c8.284 0 15-6.716 15-15s-6.716-15-15-15h-90c-8.284 0-15 6.716-15 15s6.716 15 15 15h20.729l-17.669 35.337c-10.399-3.458-21.514-5.337-33.06-5.337-58.449 0-106 47.103-106 105s47.551 105 106 105c52.804 0 96.623-39.184 103.924-90h31.076v45c0 8.284 6.716 15 15 15h30c8.284 0 15-6.716 15-15s-6.716-15-15-15h-15v-40.845l74.177-123.629 10.296 27.456c-32.443 17.886-54.473 52.425-54.473 92.018 0 57.897 47.103 105 105 105 58.449 0 106-47.103 106-105s-47.551-105-106-105zm-300 180c-41.907 0-76-33.645-76-75s34.093-75 76-75c6.724 0 13.239.903 19.444 2.571l-32.86 65.721c-2.325 4.65-2.076 10.172.657 14.594s7.561 7.114 12.76 7.104h73.491c-6.97 34.202-37.273 60.01-73.492 60.01zm24.271-90 21.986-43.971c13.727 10.791 23.622 26.247 27.235 43.971zm79.653 0c-4.226-29.417-20.689-54.93-44.051-71.205l15.127-30.254 50.729 101.459zm138.971-180h72.105v15c0 8.271-6.729 15-15 15h-45.855zm57.105 270c-41.355 0-75-33.645-75-75 0-26.726 14.063-50.217 35.167-63.502l25.789 68.769c2.91 7.759 11.556 11.687 19.312 8.778s11.687-11.555 8.778-19.312l-25.802-68.805c3.831-.605 7.756-.928 11.756-.928 41.907 0 76 33.645 76 75s-34.093 75-76 75z" fill="url(#SVGID_1_)"/></g></g></svg>